<?xml version="1.0" encoding="UTF-8" standalone="no"?>
<!-- Generator: Adobe Illustrator 29.1.0, SVG Export Plug-In . SVG Version: 9.03 Build 55587)  -->

<svg xmlns="http://www.w3.org/2000/svg" enable-background="new 0 0 24 24" viewBox="0 0 24 24" id="gg-circle">
  <path fill="#FCC34A" d="M9.606,18.636c-0.133,0-0.26-0.053-0.354-0.146l-6.083-6.082c-0.094-0.094-0.146-0.221-0.146-0.354s0.053-0.26,0.146-0.354l6.082-6.082c0.195-0.195,0.512-0.196,0.708,0.001l1.454,1.462c0.194,0.195,0.194,0.511-0.001,0.706l-1.171,1.17C10.068,9.13,9.801,9.15,9.607,9.019l-3.035,3.035l3.029,3.029l0.58-0.58l-2.215-2.207c-0.094-0.094-0.147-0.221-0.147-0.354s0.053-0.26,0.146-0.354l1.181-1.181c0.195-0.195,0.512-0.195,0.707,0l3.736,3.736c0.195,0.195,0.195,0.511,0,0.707L9.96,18.489C9.867,18.583,9.74,18.636,9.606,18.636C9.606,18.636,9.606,18.636,9.606,18.636z"></path>
  <path fill="#110638" d="M12,24C5.383,24,0,18.617,0,12S5.383,0,12,0s12,5.383,12,12S18.617,24,12,24z M12,1C5.935,1,1,5.935,1,12s4.935,11,11,11s11-4.935,11-11S18.065,1,12,1z"></path>
  <path fill="#110638" d="M14.395,18.527c-0.128,0-0.256-0.049-0.353-0.146l-1.454-1.451c-0.195-0.194-0.196-0.51-0.002-0.706l1.167-1.181c0.093-0.095,0.221-0.148,0.354-0.148c0.123-0.017,0.199,0.03,0.282,0.086l3.035-3.035l-3.028-3.029L13.82,9.492l2.215,2.207c0.094,0.094,0.147,0.221,0.147,0.354s-0.053,0.26-0.146,0.354l-1.181,1.181c-0.195,0.195-0.512,0.195-0.707,0l-3.736-3.736c-0.094-0.094-0.146-0.221-0.146-0.354s0.053-0.26,0.146-0.354l3.63-3.629c0.195-0.195,0.512-0.195,0.707,0l6.082,6.082c0.094,0.094,0.146,0.221,0.146,0.354c0,0.133-0.053,0.26-0.146,0.354l-6.082,6.077C14.651,18.479,14.523,18.527,14.395,18.527z M13.646,16.574l0.749,0.748l5.375-5.372l-5.375-5.375l-2.923,2.922l3.029,3.029l0.473-0.473L12.76,9.847c-0.094-0.094-0.147-0.221-0.147-0.354s0.053-0.26,0.146-0.354l1.282-1.282c0.188-0.188,0.52-0.188,0.707,0l3.735,3.736c0.195,0.195,0.195,0.512,0,0.707l-3.735,3.736c-0.173,0.171-0.438,0.191-0.632,0.062L13.646,16.574z"></path>
</svg>